<mxfile host="app.diagrams.net" modified="2023-08-15T13:43:03.380Z" agent="Mozilla/5.0 (Windows NT 10.0; Win64; x64) AppleWebKit/537.36 (KHTML, like Gecko) Chrome/115.0.0.0 Safari/537.36" etag="eS7tmnkba5h1wRGb_Sg4" version="21.6.8" type="github">
  <diagram id="R2lEEEUBdFMjLlhIrx00" name="Page-1">
    <mxGraphModel dx="1019" dy="1646" grid="1" gridSize="10" guides="1" tooltips="1" connect="1" arrows="1" fold="1" page="1" pageScale="1" pageWidth="850" pageHeight="1100" math="0" shadow="0" extFonts="Permanent Marker^https://fonts.googleapis.com/css?family=Permanent+Marker">
      <root>
        <mxCell id="0" />
        <mxCell id="1" parent="0" />
        <mxCell id="Kp6BYRPakSOtjhqHhSwP-1" value="número identificador" style="ellipse;whiteSpace=wrap;html=1;" vertex="1" parent="1">
          <mxGeometry x="540" y="480" width="120" height="80" as="geometry" />
        </mxCell>
        <mxCell id="Kp6BYRPakSOtjhqHhSwP-5" style="edgeStyle=orthogonalEdgeStyle;rounded=0;orthogonalLoop=1;jettySize=auto;html=1;exitX=0.5;exitY=1;exitDx=0;exitDy=0;" edge="1" parent="1" source="Kp6BYRPakSOtjhqHhSwP-2" target="Kp6BYRPakSOtjhqHhSwP-1">
          <mxGeometry relative="1" as="geometry" />
        </mxCell>
        <mxCell id="Kp6BYRPakSOtjhqHhSwP-6" style="edgeStyle=orthogonalEdgeStyle;rounded=0;orthogonalLoop=1;jettySize=auto;html=1;exitX=0;exitY=0.75;exitDx=0;exitDy=0;" edge="1" parent="1" source="Kp6BYRPakSOtjhqHhSwP-2" target="Kp6BYRPakSOtjhqHhSwP-4">
          <mxGeometry relative="1" as="geometry" />
        </mxCell>
        <mxCell id="Kp6BYRPakSOtjhqHhSwP-2" value="Vaga" style="rounded=0;whiteSpace=wrap;html=1;" vertex="1" parent="1">
          <mxGeometry x="140" y="170" width="120" height="60" as="geometry" />
        </mxCell>
        <mxCell id="Kp6BYRPakSOtjhqHhSwP-4" value="status" style="ellipse;whiteSpace=wrap;html=1;" vertex="1" parent="1">
          <mxGeometry y="200" width="120" height="80" as="geometry" />
        </mxCell>
        <mxCell id="Kp6BYRPakSOtjhqHhSwP-10" style="edgeStyle=orthogonalEdgeStyle;rounded=0;orthogonalLoop=1;jettySize=auto;html=1;entryX=1;entryY=0.5;entryDx=0;entryDy=0;" edge="1" parent="1" source="Kp6BYRPakSOtjhqHhSwP-8" target="Kp6BYRPakSOtjhqHhSwP-9">
          <mxGeometry relative="1" as="geometry" />
        </mxCell>
        <mxCell id="Kp6BYRPakSOtjhqHhSwP-23" style="edgeStyle=orthogonalEdgeStyle;rounded=0;orthogonalLoop=1;jettySize=auto;html=1;exitX=1;exitY=0.5;exitDx=0;exitDy=0;" edge="1" parent="1" source="Kp6BYRPakSOtjhqHhSwP-8" target="Kp6BYRPakSOtjhqHhSwP-22">
          <mxGeometry relative="1" as="geometry" />
        </mxCell>
        <mxCell id="Kp6BYRPakSOtjhqHhSwP-24" style="edgeStyle=orthogonalEdgeStyle;rounded=0;orthogonalLoop=1;jettySize=auto;html=1;exitX=0.5;exitY=0;exitDx=0;exitDy=0;" edge="1" parent="1" source="Kp6BYRPakSOtjhqHhSwP-8" target="Kp6BYRPakSOtjhqHhSwP-21">
          <mxGeometry relative="1" as="geometry" />
        </mxCell>
        <mxCell id="Kp6BYRPakSOtjhqHhSwP-26" style="edgeStyle=orthogonalEdgeStyle;rounded=0;orthogonalLoop=1;jettySize=auto;html=1;exitX=0.5;exitY=1;exitDx=0;exitDy=0;" edge="1" parent="1" source="Kp6BYRPakSOtjhqHhSwP-8" target="Kp6BYRPakSOtjhqHhSwP-25">
          <mxGeometry relative="1" as="geometry" />
        </mxCell>
        <mxCell id="Kp6BYRPakSOtjhqHhSwP-8" value="Cliente" style="rounded=0;whiteSpace=wrap;html=1;" vertex="1" parent="1">
          <mxGeometry x="500" y="70" width="120" height="60" as="geometry" />
        </mxCell>
        <mxCell id="Kp6BYRPakSOtjhqHhSwP-11" style="edgeStyle=orthogonalEdgeStyle;rounded=0;orthogonalLoop=1;jettySize=auto;html=1;exitX=0;exitY=0.5;exitDx=0;exitDy=0;" edge="1" parent="1" source="Kp6BYRPakSOtjhqHhSwP-9" target="Kp6BYRPakSOtjhqHhSwP-2">
          <mxGeometry relative="1" as="geometry" />
        </mxCell>
        <mxCell id="Kp6BYRPakSOtjhqHhSwP-15" style="edgeStyle=orthogonalEdgeStyle;rounded=0;orthogonalLoop=1;jettySize=auto;html=1;" edge="1" parent="1" source="Kp6BYRPakSOtjhqHhSwP-9" target="Kp6BYRPakSOtjhqHhSwP-12">
          <mxGeometry relative="1" as="geometry" />
        </mxCell>
        <mxCell id="Kp6BYRPakSOtjhqHhSwP-9" value="carro" style="rounded=0;whiteSpace=wrap;html=1;" vertex="1" parent="1">
          <mxGeometry x="260" y="90" width="120" height="60" as="geometry" />
        </mxCell>
        <mxCell id="Kp6BYRPakSOtjhqHhSwP-12" value="placa do carro" style="ellipse;whiteSpace=wrap;html=1;" vertex="1" parent="1">
          <mxGeometry x="60" y="10" width="120" height="80" as="geometry" />
        </mxCell>
        <mxCell id="Kp6BYRPakSOtjhqHhSwP-34" style="edgeStyle=orthogonalEdgeStyle;rounded=0;orthogonalLoop=1;jettySize=auto;html=1;exitX=0;exitY=0.5;exitDx=0;exitDy=0;" edge="1" parent="1" source="Kp6BYRPakSOtjhqHhSwP-13" target="Kp6BYRPakSOtjhqHhSwP-9">
          <mxGeometry relative="1" as="geometry" />
        </mxCell>
        <mxCell id="Kp6BYRPakSOtjhqHhSwP-13" value="cor do carro" style="ellipse;whiteSpace=wrap;html=1;" vertex="1" parent="1">
          <mxGeometry x="370" y="-10" width="120" height="80" as="geometry" />
        </mxCell>
        <mxCell id="Kp6BYRPakSOtjhqHhSwP-28" style="edgeStyle=orthogonalEdgeStyle;rounded=0;orthogonalLoop=1;jettySize=auto;html=1;" edge="1" parent="1" source="Kp6BYRPakSOtjhqHhSwP-16" target="Kp6BYRPakSOtjhqHhSwP-29">
          <mxGeometry relative="1" as="geometry">
            <mxPoint x="430" y="210" as="targetPoint" />
          </mxGeometry>
        </mxCell>
        <mxCell id="Kp6BYRPakSOtjhqHhSwP-16" value="manobrista" style="rounded=0;whiteSpace=wrap;html=1;" vertex="1" parent="1">
          <mxGeometry x="500" y="260" width="120" height="60" as="geometry" />
        </mxCell>
        <mxCell id="Kp6BYRPakSOtjhqHhSwP-33" style="edgeStyle=orthogonalEdgeStyle;rounded=0;orthogonalLoop=1;jettySize=auto;html=1;exitX=0;exitY=0;exitDx=0;exitDy=0;" edge="1" parent="1" source="Kp6BYRPakSOtjhqHhSwP-21" target="Kp6BYRPakSOtjhqHhSwP-12">
          <mxGeometry relative="1" as="geometry" />
        </mxCell>
        <mxCell id="Kp6BYRPakSOtjhqHhSwP-36" style="edgeStyle=orthogonalEdgeStyle;rounded=0;orthogonalLoop=1;jettySize=auto;html=1;exitX=1;exitY=0.5;exitDx=0;exitDy=0;" edge="1" parent="1" source="Kp6BYRPakSOtjhqHhSwP-21" target="Kp6BYRPakSOtjhqHhSwP-35">
          <mxGeometry relative="1" as="geometry" />
        </mxCell>
        <mxCell id="Kp6BYRPakSOtjhqHhSwP-21" value="Avulso" style="ellipse;whiteSpace=wrap;html=1;" vertex="1" parent="1">
          <mxGeometry x="500" y="-40" width="120" height="80" as="geometry" />
        </mxCell>
        <mxCell id="Kp6BYRPakSOtjhqHhSwP-32" value="" style="edgeStyle=orthogonalEdgeStyle;rounded=0;orthogonalLoop=1;jettySize=auto;html=1;" edge="1" parent="1" source="Kp6BYRPakSOtjhqHhSwP-22" target="Kp6BYRPakSOtjhqHhSwP-31">
          <mxGeometry relative="1" as="geometry" />
        </mxCell>
        <mxCell id="Kp6BYRPakSOtjhqHhSwP-37" style="edgeStyle=orthogonalEdgeStyle;rounded=0;orthogonalLoop=1;jettySize=auto;html=1;" edge="1" parent="1" source="Kp6BYRPakSOtjhqHhSwP-22" target="Kp6BYRPakSOtjhqHhSwP-35">
          <mxGeometry relative="1" as="geometry" />
        </mxCell>
        <mxCell id="Kp6BYRPakSOtjhqHhSwP-43" style="edgeStyle=orthogonalEdgeStyle;rounded=0;orthogonalLoop=1;jettySize=auto;html=1;exitX=0;exitY=1;exitDx=0;exitDy=0;entryX=0.748;entryY=0.071;entryDx=0;entryDy=0;entryPerimeter=0;" edge="1" parent="1" source="Kp6BYRPakSOtjhqHhSwP-22" target="Kp6BYRPakSOtjhqHhSwP-1">
          <mxGeometry relative="1" as="geometry">
            <mxPoint x="650" y="410" as="targetPoint" />
          </mxGeometry>
        </mxCell>
        <mxCell id="Kp6BYRPakSOtjhqHhSwP-22" value="Mensalista" style="ellipse;whiteSpace=wrap;html=1;" vertex="1" parent="1">
          <mxGeometry x="650" y="70" width="120" height="70" as="geometry" />
        </mxCell>
        <mxCell id="Kp6BYRPakSOtjhqHhSwP-27" value="" style="edgeStyle=orthogonalEdgeStyle;rounded=0;orthogonalLoop=1;jettySize=auto;html=1;" edge="1" parent="1" source="Kp6BYRPakSOtjhqHhSwP-25" target="Kp6BYRPakSOtjhqHhSwP-16">
          <mxGeometry relative="1" as="geometry" />
        </mxCell>
        <mxCell id="Kp6BYRPakSOtjhqHhSwP-25" value="passar o carro" style="rhombus;whiteSpace=wrap;html=1;" vertex="1" parent="1">
          <mxGeometry x="520" y="150" width="80" height="80" as="geometry" />
        </mxCell>
        <mxCell id="Kp6BYRPakSOtjhqHhSwP-30" style="edgeStyle=orthogonalEdgeStyle;rounded=0;orthogonalLoop=1;jettySize=auto;html=1;entryX=1;entryY=0.5;entryDx=0;entryDy=0;" edge="1" parent="1" source="Kp6BYRPakSOtjhqHhSwP-29" target="Kp6BYRPakSOtjhqHhSwP-9">
          <mxGeometry relative="1" as="geometry" />
        </mxCell>
        <mxCell id="Kp6BYRPakSOtjhqHhSwP-29" value="manobra" style="rhombus;whiteSpace=wrap;html=1;" vertex="1" parent="1">
          <mxGeometry x="390" y="170" width="80" height="80" as="geometry" />
        </mxCell>
        <mxCell id="Kp6BYRPakSOtjhqHhSwP-31" value="Nome" style="ellipse;whiteSpace=wrap;html=1;" vertex="1" parent="1">
          <mxGeometry x="680" y="180" width="120" height="80" as="geometry" />
        </mxCell>
        <mxCell id="Kp6BYRPakSOtjhqHhSwP-35" value="horário de entrada e saída" style="ellipse;whiteSpace=wrap;html=1;" vertex="1" parent="1">
          <mxGeometry x="660" y="-40" width="120" height="80" as="geometry" />
        </mxCell>
        <mxCell id="Kp6BYRPakSOtjhqHhSwP-39" style="edgeStyle=orthogonalEdgeStyle;rounded=0;orthogonalLoop=1;jettySize=auto;html=1;" edge="1" parent="1" source="Kp6BYRPakSOtjhqHhSwP-38" target="Kp6BYRPakSOtjhqHhSwP-21">
          <mxGeometry relative="1" as="geometry" />
        </mxCell>
        <mxCell id="Kp6BYRPakSOtjhqHhSwP-40" style="edgeStyle=orthogonalEdgeStyle;rounded=0;orthogonalLoop=1;jettySize=auto;html=1;entryX=0.25;entryY=0;entryDx=0;entryDy=0;" edge="1" parent="1" source="Kp6BYRPakSOtjhqHhSwP-38" target="Kp6BYRPakSOtjhqHhSwP-9">
          <mxGeometry relative="1" as="geometry" />
        </mxCell>
        <mxCell id="Kp6BYRPakSOtjhqHhSwP-38" value="comprovante" style="rounded=0;whiteSpace=wrap;html=1;" vertex="1" parent="1">
          <mxGeometry x="425" y="-130" width="125" height="60" as="geometry" />
        </mxCell>
        <mxCell id="Kp6BYRPakSOtjhqHhSwP-44" value="CORREÇÃO" style="text;html=1;align=center;verticalAlign=middle;resizable=0;points=[];autosize=1;strokeColor=none;fillColor=none;" vertex="1" parent="1">
          <mxGeometry x="360" y="610" width="90" height="30" as="geometry" />
        </mxCell>
        <mxCell id="Kp6BYRPakSOtjhqHhSwP-60" style="edgeStyle=orthogonalEdgeStyle;rounded=0;orthogonalLoop=1;jettySize=auto;html=1;exitX=0.5;exitY=0;exitDx=0;exitDy=0;entryX=0.5;entryY=1;entryDx=0;entryDy=0;" edge="1" parent="1" source="Kp6BYRPakSOtjhqHhSwP-45" target="Kp6BYRPakSOtjhqHhSwP-50">
          <mxGeometry relative="1" as="geometry" />
        </mxCell>
        <mxCell id="Kp6BYRPakSOtjhqHhSwP-61" style="edgeStyle=orthogonalEdgeStyle;rounded=0;orthogonalLoop=1;jettySize=auto;html=1;exitX=0;exitY=0.75;exitDx=0;exitDy=0;entryX=0.5;entryY=1;entryDx=0;entryDy=0;" edge="1" parent="1" source="Kp6BYRPakSOtjhqHhSwP-45" target="Kp6BYRPakSOtjhqHhSwP-47">
          <mxGeometry relative="1" as="geometry" />
        </mxCell>
        <mxCell id="Kp6BYRPakSOtjhqHhSwP-62" style="edgeStyle=orthogonalEdgeStyle;rounded=0;orthogonalLoop=1;jettySize=auto;html=1;exitX=1;exitY=0.75;exitDx=0;exitDy=0;entryX=0.5;entryY=1;entryDx=0;entryDy=0;" edge="1" parent="1" source="Kp6BYRPakSOtjhqHhSwP-45" target="Kp6BYRPakSOtjhqHhSwP-54">
          <mxGeometry relative="1" as="geometry" />
        </mxCell>
        <mxCell id="Kp6BYRPakSOtjhqHhSwP-80" style="edgeStyle=orthogonalEdgeStyle;rounded=0;orthogonalLoop=1;jettySize=auto;html=1;exitX=0.75;exitY=1;exitDx=0;exitDy=0;entryX=0;entryY=0.5;entryDx=0;entryDy=0;" edge="1" parent="1" source="Kp6BYRPakSOtjhqHhSwP-45" target="Kp6BYRPakSOtjhqHhSwP-46">
          <mxGeometry relative="1" as="geometry" />
        </mxCell>
        <mxCell id="Kp6BYRPakSOtjhqHhSwP-45" value="CLIENTE AVULSO" style="rounded=0;whiteSpace=wrap;html=1;" vertex="1" parent="1">
          <mxGeometry x="460" y="700" width="90" height="40" as="geometry" />
        </mxCell>
        <mxCell id="Kp6BYRPakSOtjhqHhSwP-81" style="edgeStyle=orthogonalEdgeStyle;rounded=0;orthogonalLoop=1;jettySize=auto;html=1;exitX=1;exitY=0.5;exitDx=0;exitDy=0;" edge="1" parent="1" source="Kp6BYRPakSOtjhqHhSwP-46" target="Kp6BYRPakSOtjhqHhSwP-48">
          <mxGeometry relative="1" as="geometry" />
        </mxCell>
        <mxCell id="Kp6BYRPakSOtjhqHhSwP-85" style="edgeStyle=orthogonalEdgeStyle;rounded=0;orthogonalLoop=1;jettySize=auto;html=1;exitX=1;exitY=0;exitDx=0;exitDy=0;entryX=0.5;entryY=1;entryDx=0;entryDy=0;" edge="1" parent="1" source="Kp6BYRPakSOtjhqHhSwP-46" target="Kp6BYRPakSOtjhqHhSwP-53">
          <mxGeometry relative="1" as="geometry" />
        </mxCell>
        <mxCell id="Kp6BYRPakSOtjhqHhSwP-86" style="edgeStyle=orthogonalEdgeStyle;rounded=0;orthogonalLoop=1;jettySize=auto;html=1;exitX=1;exitY=1;exitDx=0;exitDy=0;entryX=0;entryY=0;entryDx=0;entryDy=0;" edge="1" parent="1" source="Kp6BYRPakSOtjhqHhSwP-46" target="Kp6BYRPakSOtjhqHhSwP-52">
          <mxGeometry relative="1" as="geometry" />
        </mxCell>
        <mxCell id="Kp6BYRPakSOtjhqHhSwP-87" style="edgeStyle=orthogonalEdgeStyle;rounded=0;orthogonalLoop=1;jettySize=auto;html=1;exitX=0;exitY=1;exitDx=0;exitDy=0;entryX=1;entryY=0;entryDx=0;entryDy=0;" edge="1" parent="1" source="Kp6BYRPakSOtjhqHhSwP-46" target="Kp6BYRPakSOtjhqHhSwP-55">
          <mxGeometry relative="1" as="geometry" />
        </mxCell>
        <mxCell id="Kp6BYRPakSOtjhqHhSwP-46" value="ESTACIONA" style="rhombus;whiteSpace=wrap;html=1;" vertex="1" parent="1">
          <mxGeometry x="570" y="760" width="80" height="80" as="geometry" />
        </mxCell>
        <mxCell id="Kp6BYRPakSOtjhqHhSwP-47" value="MARCA" style="ellipse;whiteSpace=wrap;html=1;spacingLeft=80;" vertex="1" parent="1">
          <mxGeometry x="380" y="700" width="30" height="20" as="geometry" />
        </mxCell>
        <mxCell id="Kp6BYRPakSOtjhqHhSwP-78" style="edgeStyle=orthogonalEdgeStyle;rounded=0;orthogonalLoop=1;jettySize=auto;html=1;exitX=0.5;exitY=0;exitDx=0;exitDy=0;" edge="1" parent="1" source="Kp6BYRPakSOtjhqHhSwP-48" target="Kp6BYRPakSOtjhqHhSwP-57">
          <mxGeometry relative="1" as="geometry" />
        </mxCell>
        <mxCell id="Kp6BYRPakSOtjhqHhSwP-79" style="edgeStyle=orthogonalEdgeStyle;rounded=0;orthogonalLoop=1;jettySize=auto;html=1;exitX=0.5;exitY=1;exitDx=0;exitDy=0;" edge="1" parent="1" source="Kp6BYRPakSOtjhqHhSwP-48" target="Kp6BYRPakSOtjhqHhSwP-56">
          <mxGeometry relative="1" as="geometry" />
        </mxCell>
        <mxCell id="Kp6BYRPakSOtjhqHhSwP-48" value="VAGA" style="rounded=0;whiteSpace=wrap;html=1;" vertex="1" parent="1">
          <mxGeometry x="710" y="780" width="90" height="40" as="geometry" />
        </mxCell>
        <mxCell id="Kp6BYRPakSOtjhqHhSwP-92" style="edgeStyle=orthogonalEdgeStyle;rounded=0;orthogonalLoop=1;jettySize=auto;html=1;exitX=0.25;exitY=0;exitDx=0;exitDy=0;entryX=0.5;entryY=1;entryDx=0;entryDy=0;" edge="1" parent="1" source="Kp6BYRPakSOtjhqHhSwP-49" target="Kp6BYRPakSOtjhqHhSwP-75">
          <mxGeometry relative="1" as="geometry" />
        </mxCell>
        <mxCell id="Kp6BYRPakSOtjhqHhSwP-93" style="edgeStyle=orthogonalEdgeStyle;rounded=0;orthogonalLoop=1;jettySize=auto;html=1;exitX=0;exitY=0;exitDx=0;exitDy=0;entryX=0.5;entryY=0;entryDx=0;entryDy=0;" edge="1" parent="1" source="Kp6BYRPakSOtjhqHhSwP-49" target="Kp6BYRPakSOtjhqHhSwP-76">
          <mxGeometry relative="1" as="geometry" />
        </mxCell>
        <mxCell id="Kp6BYRPakSOtjhqHhSwP-94" style="edgeStyle=orthogonalEdgeStyle;rounded=0;orthogonalLoop=1;jettySize=auto;html=1;exitX=1;exitY=1;exitDx=0;exitDy=0;entryX=0;entryY=0.5;entryDx=0;entryDy=0;" edge="1" parent="1" source="Kp6BYRPakSOtjhqHhSwP-49" target="Kp6BYRPakSOtjhqHhSwP-46">
          <mxGeometry relative="1" as="geometry" />
        </mxCell>
        <mxCell id="Kp6BYRPakSOtjhqHhSwP-49" value="CLIENTE MENSALISTA" style="rounded=0;whiteSpace=wrap;html=1;" vertex="1" parent="1">
          <mxGeometry x="340" y="830" width="90" height="40" as="geometry" />
        </mxCell>
        <mxCell id="Kp6BYRPakSOtjhqHhSwP-50" value="PLACA" style="ellipse;whiteSpace=wrap;html=1;spacingLeft=80;" vertex="1" parent="1">
          <mxGeometry x="500" y="660" width="30" height="20" as="geometry" />
        </mxCell>
        <mxCell id="Kp6BYRPakSOtjhqHhSwP-52" value="vALOR" style="ellipse;whiteSpace=wrap;html=1;spacingLeft=80;" vertex="1" parent="1">
          <mxGeometry x="630" y="840" width="30" height="20" as="geometry" />
        </mxCell>
        <mxCell id="Kp6BYRPakSOtjhqHhSwP-53" value="HORA SAÍDA" style="ellipse;whiteSpace=wrap;html=1;spacingLeft=80;" vertex="1" parent="1">
          <mxGeometry x="630" y="740" width="30" height="20" as="geometry" />
        </mxCell>
        <mxCell id="Kp6BYRPakSOtjhqHhSwP-54" value="COR" style="ellipse;whiteSpace=wrap;html=1;spacingLeft=80;" vertex="1" parent="1">
          <mxGeometry x="580" y="690" width="30" height="20" as="geometry" />
        </mxCell>
        <mxCell id="Kp6BYRPakSOtjhqHhSwP-55" value="HORA ENTRADA" style="ellipse;whiteSpace=wrap;html=1;spacingLeft=80;" vertex="1" parent="1">
          <mxGeometry x="580" y="870" width="30" height="20" as="geometry" />
        </mxCell>
        <mxCell id="Kp6BYRPakSOtjhqHhSwP-56" value="STATUS" style="ellipse;whiteSpace=wrap;html=1;spacingLeft=80;" vertex="1" parent="1">
          <mxGeometry x="740" y="850" width="30" height="20" as="geometry" />
        </mxCell>
        <mxCell id="Kp6BYRPakSOtjhqHhSwP-57" value="NÚMERO" style="ellipse;whiteSpace=wrap;html=1;spacingLeft=80;" vertex="1" parent="1">
          <mxGeometry x="780" y="730" width="30" height="20" as="geometry" />
        </mxCell>
        <mxCell id="Kp6BYRPakSOtjhqHhSwP-75" value="VALOR MENSAL" style="ellipse;whiteSpace=wrap;html=1;spacingLeft=80;" vertex="1" parent="1">
          <mxGeometry x="370" y="780" width="30" height="20" as="geometry" />
        </mxCell>
        <mxCell id="Kp6BYRPakSOtjhqHhSwP-76" value="NOME" style="ellipse;whiteSpace=wrap;html=1;spacingLeft=80;" vertex="1" parent="1">
          <mxGeometry x="260" y="840" width="30" height="20" as="geometry" />
        </mxCell>
      </root>
    </mxGraphModel>
  </diagram>
</mxfile>
